{
  "source": "C:\\Users\\Peter\\Desktop\\stuff\\MIUN\\quantitative_research\\video_compression\\videos\\BVI-HD\\BVI-HD_CDVL_videos\\ORIG\\FishAndRock_1920x1080_30fps.mp4",
  "output": "C:\\Users\\Peter\\Desktop\\stuff\\MIUN\\quantitative_research\\video_compression\\compressed_videos\\BVI-HD\\hevc\\1\\FishAndRock_1920x1080_30fps_hevc.mp4",
  "codec": "hevc",
  "ok": "Input #0, mov,mp4,m4a,3gp,3g2,mj2, from 'C:\\Users\\Peter\\Desktop\\stuff\\MIUN\\quantitative_research\\video_compression\\videos\\BVI-HD\\BVI-HD_CDVL_videos\\ORIG\\FishAndRock_1920x1080_30fps.mp4':\n  Metadata:\n    major_brand     : isom\n    minor_version   : 512\n    compatible_brands: isomiso2avc1mp41\n    encoder         : Lavf54.28.101\n  Duration: 00:00:05.00, start: 0.000000, bitrate: 251564 kb/s\n  Stream #0:0[0x1](und): Video: h264 (High 4:4:4 Predictive) (avc1 / 0x31637661), yuv420p(progressive), 1920x1080, 251561 kb/s, 30 fps, 30 tbr, 30 tbn (default)\n    Metadata:\n      handler_name    : VideoHandler\n      vendor_id       : [0][0][0][0]\n[out#0/mp4 @ 0000021f5bbf1700] Codec AVOption b:a (set bitrate (in bits/s)) has not been used for any stream. The most likely reason is either wrong type (e.g. a video option with no video streams) or that it is a private option of some decoder which was not actually used for any stream.\nStream mapping:\n  Stream #0:0 -> #0:0 (h264 (native) -> hevc (libx265))\nPress [q] to stop, [?] for help\n[libx265 @ 0000021f5c730180] Unknown option: \"aq-mode.\nx265 [info]: HEVC encoder version 4.1+190-8f11c33ac\nx265 [info]: build info [Windows][GCC 15.1.0][64 bit] 10bit\nx265 [info]: using cpu capabilities: MMX2 SSE2Fast LZCNT SSSE3 SSE4.2 AVX FMA3 BMI2 AVX2\nx265 [info]: Main 10 profile, Level-4 (Main tier)\nx265 [info]: Thread pool created using 12 threads\nx265 [info]: Slices                              : 1\nx265 [info]: frame threads / pool features       : 3 / wpp(17 rows)\nx265 [info]: Coding QT: max CU size, min CU size : 64 / 8\nx265 [info]: Residual QT: max TU size, max depth : 32 / 1 inter / 1 intra\nx265 [info]: ME / range / subpel / merge         : star / 57 / 3 / 3\nx265 [info]: Keyframe min / max / scenecut / bias  : 25 / 250 / 40 / 5.00 \nx265 [info]: Lookahead / bframes / badapt        : 25 / 4 / 2\nx265 [info]: b-pyramid / weightp / weightb       : 1 / 1 / 0\nx265 [info]: References / ref-limit  cu / depth  : 4 / on / on\nx265 [info]: AQ: mode / str / qg-size / cu-tree  : 2 / 1.0 / 32 / 1\nx265 [info]: Rate Control / qCompress            : ABR-1000 kbps / 0.60\nx265 [info]: VBV/HRD buffer / max-rate / init    : 1000 / 1000 / 0.750\nx265 [info]: tools: rect limit-modes rd=4 psy-rd=2.00 rdoq=2 psy-rdoq=1.00\nx265 [info]: tools: rskip mode=1 signhide tmvp strong-intra-smoothing lslices=4\nx265 [info]: tools: deblock sao dhdr10-info\nOutput #0, mp4, to 'C:\\Users\\Peter\\Desktop\\stuff\\MIUN\\quantitative_research\\video_compression\\compressed_videos\\BVI-HD\\hevc\\1\\FishAndRock_1920x1080_30fps_hevc.mp4':\n  Metadata:\n    major_brand     : isom\n    minor_version   : 512\n    compatible_brands: isomiso2avc1mp41\n    encoder         : Lavf62.3.100\n  Stream #0:0(und): Video: hevc (hev1 / 0x31766568), yuv420p10le(tv, progressive), 1920x1080, q=2-31, 1000 kb/s, 30 fps, 15360 tbn (default)\n    Metadata:\n      encoder         : Lavc62.11.100 libx265\n      handler_name    : VideoHandler\n      vendor_id       : [0][0][0][0]\n    Side data:\n      cpb: bitrate max/min/avg: 1000000/0/1000000 buffer size: 1000000 vbv_delay: N/A\nframe=    0 fps=0.0 q=0.0 size=       0KiB time=N/A bitrate=N/A speed=N/A elapsed=0:00:01.05    \nframe=    0 fps=0.0 q=0.0 size=       0KiB time=N/A bitrate=N/A speed=N/A elapsed=0:00:01.63    \nframe=    0 fps=0.0 q=0.0 size=       0KiB time=N/A bitrate=N/A speed=N/A elapsed=0:00:02.14    \nframe=    0 fps=0.0 q=0.0 size=       0KiB time=N/A bitrate=N/A speed=N/A elapsed=0:00:02.69    \nframe=    0 fps=0.0 q=0.0 size=       0KiB time=N/A bitrate=N/A speed=N/A elapsed=0:00:03.24    \nframe=    0 fps=0.0 q=0.0 size=       0KiB time=N/A bitrate=N/A speed=N/A elapsed=0:00:03.74    \nframe=    0 fps=0.0 q=0.0 size=       0KiB time=N/A bitrate=N/A speed=N/A elapsed=0:00:04.26    \nframe=    0 fps=0.0 q=0.0 size=       0KiB time=N/A bitrate=N/A speed=N/A elapsed=0:00:04.78    \nframe=    0 fps=0.0 q=0.0 size=       0KiB time=N/A bitrate=N/A speed=N/A elapsed=0:00:05.29    \nframe=    0 fps=0.0 q=0.0 size=       0KiB time=N/A bitrate=N/A speed=N/A elapsed=0:00:05.80    \nframe=    0 fps=0.0 q=0.0 size=       0KiB time=N/A bitrate=N/A speed=N/A elapsed=0:00:06.32    \nframe=    0 fps=0.0 q=0.0 size=       0KiB time=N/A bitrate=N/A speed=N/A elapsed=0:00:06.84    \nframe=    1 fps=0.1 q=42.1 size=       0KiB time=-00:00:00.03 bitrate=N/A speed=N/A elapsed=0:00:07.36    \nframe=    1 fps=0.1 q=42.1 size=       0KiB time=-00:00:00.03 bitrate=N/A speed=N/A elapsed=0:00:07.89    \nframe=    1 fps=0.1 q=42.1 size=       0KiB time=-00:00:00.03 bitrate=N/A speed=N/A elapsed=0:00:08.40    \nframe=    2 fps=0.2 q=48.3 size=       0KiB time=00:00:00.00 bitrate=N/A speed=   0x elapsed=0:00:08.92    \nframe=    2 fps=0.2 q=48.3 size=       0KiB time=00:00:00.00 bitrate=N/A speed=   0x elapsed=0:00:09.46    \nframe=    3 fps=0.3 q=51.0 size=       0KiB time=00:00:00.03 bitrate=  10.6kbits/s speed=0.00334x elapsed=0:00:09.96    \nframe=    4 fps=0.4 q=42.6 size=       0KiB time=00:00:00.06 bitrate=   5.3kbits/s speed=0.00635x elapsed=0:00:10.49    \nframe=    5 fps=0.5 q=47.1 size=       0KiB time=00:00:00.10 bitrate=   3.5kbits/s speed=0.00908x elapsed=0:00:11.00    \nframe=    5 fps=0.4 q=47.1 size=       0KiB time=00:00:00.10 bitrate=   3.5kbits/s speed=0.00867x elapsed=0:00:11.53    \nframe=    5 fps=0.4 q=47.1 size=       0KiB time=00:00:00.10 bitrate=   3.5kbits/s speed=0.00829x elapsed=0:00:12.06    \nframe=    6 fps=0.5 q=45.8 size=       0KiB time=00:00:00.13 bitrate=   2.6kbits/s speed=0.0106x elapsed=0:00:12.57    \nframe=    6 fps=0.5 q=45.8 size=       0KiB time=00:00:00.13 bitrate=   2.6kbits/s speed=0.0102x elapsed=0:00:13.11    \nframe=    7 fps=0.5 q=44.5 size=       0KiB time=00:00:00.16 bitrate=   2.1kbits/s speed=0.0122x elapsed=0:00:13.65    \nframe=    7 fps=0.5 q=44.5 size=       0KiB time=00:00:00.16 bitrate=   2.1kbits/s speed=0.0117x elapsed=0:00:14.20    \nframe=    9 fps=0.6 q=40.7 size=       0KiB time=00:00:00.23 bitrate=   1.5kbits/s speed=0.0159x elapsed=0:00:14.72    \nframe=    9 fps=0.6 q=40.7 size=       0KiB time=00:00:00.23 bitrate=   1.5kbits/s speed=0.0153x elapsed=0:00:15.23    \nframe=    9 fps=0.6 q=40.7 size=       0KiB time=00:00:00.23 bitrate=   1.5kbits/s speed=0.0148x elapsed=0:00:15.75    \nframe=    9 fps=0.6 q=40.7 size=       0KiB time=00:00:00.23 bitrate=   1.5kbits/s speed=0.0143x elapsed=0:00:16.27    \nframe=   10 fps=0.6 q=42.4 size=       0KiB time=00:00:00.26 bitrate=   1.3kbits/s speed=0.0159x elapsed=0:00:16.79    \nframe=   10 fps=0.6 q=42.4 size=       0KiB time=00:00:00.26 bitrate=   1.3kbits/s speed=0.0154x elapsed=0:00:17.32    \nframe=   11 fps=0.6 q=42.6 size=       0KiB time=00:00:00.30 bitrate=   1.2kbits/s speed=0.0168x elapsed=0:00:17.84    \nframe=   11 fps=0.6 q=42.6 size=       0KiB time=00:00:00.30 bitrate=   1.2kbits/s speed=0.0163x elapsed=0:00:18.36    \nframe=   12 fps=0.6 q=39.0 size=       0KiB time=00:00:00.33 bitrate=   1.1kbits/s speed=0.0177x elapsed=0:00:18.88    \nframe=   13 fps=0.7 q=41.2 size=       0KiB time=00:00:00.36 bitrate=   1.0kbits/s speed=0.0189x elapsed=0:00:19.40    \nframe=   13 fps=0.7 q=41.2 size=       0KiB time=00:00:00.36 bitrate=   1.0kbits/s speed=0.0184x elapsed=0:00:19.92    \nframe=   15 fps=0.7 q=43.8 size=       0KiB time=00:00:00.43 bitrate=   0.8kbits/s speed=0.0212x elapsed=0:00:20.44    \nframe=   15 fps=0.7 q=43.8 size=       0KiB time=00:00:00.43 bitrate=   0.8kbits/s speed=0.0207x elapsed=0:00:20.94    \nframe=   15 fps=0.7 q=43.8 size=       0KiB time=00:00:00.43 bitrate=   0.8kbits/s speed=0.0201x elapsed=0:00:21.51    \nframe=   16 fps=0.7 q=37.3 size=       0KiB time=00:00:00.46 bitrate=   0.8kbits/s speed=0.0212x elapsed=0:00:22.04    \nframe=   17 fps=0.8 q=42.8 size=       0KiB time=00:00:00.50 bitrate=   0.7kbits/s speed=0.0221x elapsed=0:00:22.59    \nframe=   17 fps=0.7 q=42.8 size=       0KiB time=00:00:00.50 bitrate=   0.7kbits/s speed=0.0216x elapsed=0:00:23.12    \nframe=   18 fps=0.8 q=44.8 size=       0KiB time=00:00:00.53 bitrate=   0.7kbits/s speed=0.0225x elapsed=0:00:23.65    \nframe=   18 fps=0.7 q=44.8 size=       0KiB time=00:00:00.53 bitrate=   0.7kbits/s speed=0.0221x elapsed=0:00:24.18    \nframe=   18 fps=0.7 q=44.8 size=       0KiB time=00:00:00.53 bitrate=   0.7kbits/s speed=0.0216x elapsed=0:00:24.70    \nframe=   18 fps=0.7 q=44.8 size=       0KiB time=00:00:00.53 bitrate=   0.7kbits/s speed=0.0211x elapsed=0:00:25.22    \nframe=   19 fps=0.7 q=44.8 size=       0KiB time=00:00:00.56 bitrate=   0.6kbits/s speed=0.022x elapsed=0:00:25.73    \nframe=   20 fps=0.8 q=37.5 size=       0KiB time=00:00:00.60 bitrate=   0.6kbits/s speed=0.0228x elapsed=0:00:26.27    \nframe=   20 fps=0.7 q=37.5 size=       0KiB time=00:00:00.60 bitrate=   0.6kbits/s speed=0.0224x elapsed=0:00:26.81    \nframe=   20 fps=0.7 q=37.5 size=       0KiB time=00:00:00.60 bitrate=   0.6kbits/s speed=0.0219x elapsed=0:00:27.33    \nframe=   20 fps=0.7 q=37.5 size=       0KiB time=00:00:00.60 bitrate=   0.6kbits/s speed=0.0215x elapsed=0:00:27.89    \nframe=   21 fps=0.7 q=43.8 size=       0KiB time=00:00:00.63 bitrate=   0.6kbits/s speed=0.0223x elapsed=0:00:28.46    \nframe=   21 fps=0.7 q=43.8 size=       0KiB time=00:00:00.63 bitrate=   0.6kbits/s speed=0.0218x elapsed=0:00:29.07    \nframe=   21 fps=0.7 q=43.8 size=       0KiB time=00:00:00.63 bitrate=   0.6kbits/s speed=0.0213x elapsed=0:00:29.69    \nframe=   21 fps=0.7 q=43.8 size=       0KiB time=00:00:00.63 bitrate=   0.6kbits/s speed=0.0209x elapsed=0:00:30.23    \nframe=   21 fps=0.7 q=43.8 size=       0KiB time=00:00:00.63 bitrate=   0.6kbits/s speed=0.0206x elapsed=0:00:30.78    \nframe=   21 fps=0.7 q=43.8 size=       0KiB time=00:00:00.63 bitrate=   0.6kbits/s speed=0.0202x elapsed=0:00:31.29    \nframe=   21 fps=0.7 q=43.8 size=       0KiB time=00:00:00.63 bitrate=   0.6kbits/s speed=0.0199x elapsed=0:00:31.80    \nframe=   21 fps=0.6 q=43.8 size=       0KiB time=00:00:00.63 bitrate=   0.6kbits/s speed=0.0196x elapsed=0:00:32.34    \nframe=   21 fps=0.6 q=43.8 size=       0KiB time=00:00:00.63 bitrate=   0.6kbits/s speed=0.0193x elapsed=0:00:32.86    \nframe=   21 fps=0.6 q=43.8 size=       0KiB time=00:00:00.63 bitrate=   0.6kbits/s speed=0.019x elapsed=0:00:33.38    \nframe=   22 fps=0.6 q=44.9 size=       0KiB time=00:00:00.66 bitrate=   0.5kbits/s speed=0.0196x elapsed=0:00:33.94    \nframe=   22 fps=0.6 q=44.9 size=       0KiB time=00:00:00.66 bitrate=   0.5kbits/s speed=0.0193x elapsed=0:00:34.47    \nframe=   22 fps=0.6 q=44.9 size=       0KiB time=00:00:00.66 bitrate=   0.5kbits/s speed=0.019x elapsed=0:00:35.03    \nframe=   22 fps=0.6 q=44.9 size=       0KiB time=00:00:00.66 bitrate=   0.5kbits/s speed=0.0187x elapsed=0:00:35.56    \nframe=   23 fps=0.6 q=36.9 size=       0KiB time=00:00:00.70 bitrate=   0.5kbits/s speed=0.0194x elapsed=0:00:36.10    \nframe=   23 fps=0.6 q=36.9 size=       0KiB time=00:00:00.70 bitrate=   0.5kbits/s speed=0.0191x elapsed=0:00:36.64    \nframe=   23 fps=0.6 q=36.9 size=       0KiB time=00:00:00.70 bitrate=   0.5kbits/s speed=0.0188x elapsed=0:00:37.20    \nframe=   23 fps=0.6 q=36.9 size=       0KiB time=00:00:00.70 bitrate=   0.5kbits/s speed=0.0185x elapsed=0:00:37.77    \nframe=   23 fps=0.6 q=36.9 size=       0KiB time=00:00:00.70 bitrate=   0.5kbits/s speed=0.0183x elapsed=0:00:38.29    \nframe=   24 fps=0.6 q=41.4 size=       0KiB time=00:00:00.73 bitrate=   0.5kbits/s speed=0.0189x elapsed=0:00:38.86    \nframe=   24 fps=0.6 q=41.4 size=       0KiB time=00:00:00.73 bitrate=   0.5kbits/s speed=0.0186x elapsed=0:00:39.42    \nframe=   24 fps=0.6 q=41.4 size=       0KiB time=00:00:00.73 bitrate=   0.5kbits/s speed=0.0183x elapsed=0:00:39.96    \nframe=   24 fps=0.6 q=41.4 size=       0KiB time=00:00:00.73 bitrate=   0.5kbits/s speed=0.0181x elapsed=0:00:40.49    \nframe=   25 fps=0.6 q=42.6 size=       0KiB time=00:00:00.76 bitrate=   0.5kbits/s speed=0.0187x elapsed=0:00:41.02    \nframe=   25 fps=0.6 q=42.6 size=       0KiB time=00:00:00.76 bitrate=   0.5kbits/s speed=0.0184x elapsed=0:00:41.57    \nframe=   25 fps=0.6 q=42.6 size=       0KiB time=00:00:00.76 bitrate=   0.5kbits/s speed=0.0182x elapsed=0:00:42.12    \nframe=   25 fps=0.6 q=42.6 size=       0KiB time=00:00:00.76 bitrate=   0.5kbits/s speed=0.0179x elapsed=0:00:42.71    \nframe=   25 fps=0.6 q=42.6 size=       0KiB time=00:00:00.76 bitrate=   0.5kbits/s speed=0.0177x elapsed=0:00:43.28    \nframe=   25 fps=0.6 q=42.6 size=       0KiB time=00:00:00.76 bitrate=   0.5kbits/s speed=0.0175x elapsed=0:00:43.87    \nframe=   25 fps=0.6 q=42.6 size=       0KiB time=00:00:00.76 bitrate=   0.5kbits/s speed=0.0172x elapsed=0:00:44.52    \nframe=   25 fps=0.6 q=42.6 size=       0KiB time=00:00:00.76 bitrate=   0.5kbits/s speed=0.017x elapsed=0:00:45.12    \nframe=   25 fps=0.5 q=42.6 size=       0KiB time=00:00:00.76 bitrate=   0.5kbits/s speed=0.0168x elapsed=0:00:45.68    \nframe=   25 fps=0.5 q=42.6 size=       0KiB time=00:00:00.76 bitrate=   0.5kbits/s speed=0.0166x elapsed=0:00:46.19    \nframe=   26 fps=0.6 q=42.7 size=       0KiB time=00:00:00.80 bitrate=   0.4kbits/s speed=0.0171x elapsed=0:00:46.71    \nframe=   26 fps=0.6 q=42.7 size=       0KiB time=00:00:00.80 bitrate=   0.4kbits/s speed=0.0169x elapsed=0:00:47.24    \nframe=   26 fps=0.5 q=42.7 size=       0KiB time=00:00:00.80 bitrate=   0.4kbits/s speed=0.0167x elapsed=0:00:47.83    \nframe=   26 fps=0.5 q=42.7 size=       0KiB time=00:00:00.80 bitrate=   0.4kbits/s speed=0.0165x elapsed=0:00:48.39    \nframe=   27 fps=0.6 q=36.4 size=       0KiB time=00:00:00.83 bitrate=   0.4kbits/s speed=0.017x elapsed=0:00:48.95    \nframe=   27 fps=0.5 q=36.4 size=       0KiB time=00:00:00.83 bitrate=   0.4kbits/s speed=0.0168x elapsed=0:00:49.46    \nframe=   28 fps=0.6 q=41.3 size=       0KiB time=00:00:00.86 bitrate=   0.4kbits/s speed=0.0173x elapsed=0:00:49.98    \nframe=   29 fps=0.6 q=42.8 size=       0KiB time=00:00:00.90 bitrate=   0.4kbits/s speed=0.0178x elapsed=0:00:50.49    \nframe=   29 fps=0.6 q=42.8 size=       0KiB time=00:00:00.90 bitrate=   0.4kbits/s speed=0.0176x elapsed=0:00:51.04    \nframe=   30 fps=0.6 q=41.7 size=       0KiB time=00:00:00.93 bitrate=   0.4kbits/s speed=0.0181x elapsed=0:00:51.65    \nframe=   30 fps=0.6 q=41.7 size=       0KiB time=00:00:00.93 bitrate=   0.4kbits/s speed=0.0179x elapsed=0:00:52.17    \nframe=   30 fps=0.6 q=41.7 size=       0KiB time=00:00:00.93 bitrate=   0.4kbits/s speed=0.0177x elapsed=0:00:52.70    \nframe=   30 fps=0.6 q=41.7 size=       0KiB time=00:00:00.93 bitrate=   0.4kbits/s speed=0.0175x elapsed=0:00:53.23    \nframe=   31 fps=0.6 q=36.0 size=       0KiB time=00:00:00.96 bitrate=   0.4kbits/s speed=0.018x elapsed=0:00:53.77    \nframe=   32 fps=0.6 q=40.8 size=       0KiB time=00:00:01.00 bitrate=   0.4kbits/s speed=0.0184x elapsed=0:00:54.29    \nframe=   32 fps=0.6 q=40.8 size=       0KiB time=00:00:01.00 bitrate=   0.4kbits/s speed=0.0182x elapsed=0:00:54.82    \nframe=   32 fps=0.6 q=40.8 size=       0KiB time=00:00:01.00 bitrate=   0.4kbits/s speed=0.0181x elapsed=0:00:55.36    \nframe=   32 fps=0.6 q=40.8 size=       0KiB time=00:00:01.00 bitrate=   0.4kbits/s speed=0.0179x elapsed=0:00:55.89    \nframe=   33 fps=0.6 q=42.6 size=       0KiB time=00:00:01.03 bitrate=   0.3kbits/s speed=0.0183x elapsed=0:00:56.45    \nframe=   33 fps=0.6 q=42.6 size=       0KiB time=00:00:01.03 bitrate=   0.3kbits/s speed=0.0181x elapsed=0:00:56.98    \nframe=   33 fps=0.6 q=42.6 size=       0KiB time=00:00:01.03 bitrate=   0.3kbits/s speed=0.018x elapsed=0:00:57.51    \nframe=   33 fps=0.6 q=42.6 size=       0KiB time=00:00:01.03 bitrate=   0.3kbits/s speed=0.0178x elapsed=0:00:58.10    \nframe=   33 fps=0.6 q=42.6 size=       0KiB time=00:00:01.03 bitrate=   0.3kbits/s speed=0.0176x elapsed=0:00:58.68    \nframe=   34 fps=0.6 q=41.6 size=       0KiB time=00:00:01.06 bitrate=   0.3kbits/s speed=0.018x elapsed=0:00:59.28    \nframe=   34 fps=0.6 q=41.6 size=       0KiB time=00:00:01.06 bitrate=   0.3kbits/s speed=0.0178x elapsed=0:00:59.79    \nframe=   34 fps=0.6 q=41.6 size=       0KiB time=00:00:01.06 bitrate=   0.3kbits/s speed=0.0177x elapsed=0:01:00.31    \nframe=   35 fps=0.6 q=35.8 size=       0KiB time=00:00:01.10 bitrate=   0.3kbits/s speed=0.0181x elapsed=0:01:00.83    \nframe=   36 fps=0.6 q=40.5 size=       0KiB time=00:00:01.13 bitrate=   0.3kbits/s speed=0.0185x elapsed=0:01:01.34    \nframe=   37 fps=0.6 q=41.8 size=       0KiB time=00:00:01.16 bitrate=   0.3kbits/s speed=0.0189x elapsed=0:01:01.86    \nframe=   37 fps=0.6 q=41.8 size=       0KiB time=00:00:01.16 bitrate=   0.3kbits/s speed=0.0187x elapsed=0:01:02.37    \nframe=   37 fps=0.6 q=41.8 size=       0KiB time=00:00:01.16 bitrate=   0.3kbits/s speed=0.0185x elapsed=0:01:02.92    \nframe=   37 fps=0.6 q=41.8 size=       0KiB time=00:00:01.16 bitrate=   0.3kbits/s speed=0.0184x elapsed=0:01:03.45    \nframe=   37 fps=0.6 q=41.8 size=       0KiB time=00:00:01.16 bitrate=   0.3kbits/s speed=0.0182x elapsed=0:01:04.02    \nframe=   37 fps=0.6 q=41.8 size=       0KiB time=00:00:01.16 bitrate=   0.3kbits/s speed=0.0181x elapsed=0:01:04.56    \nframe=   38 fps=0.6 q=35.7 size=       0KiB time=00:00:01.16 bitrate=   0.3kbits/s speed=0.0179x elapsed=0:01:05.17    \nframe=   38 fps=0.6 q=35.7 size=       0KiB time=00:00:01.20 bitrate=   0.3kbits/s speed=0.0182x elapsed=0:01:05.76    \nframe=   39 fps=0.6 q=40.5 size=       0KiB time=00:00:01.23 bitrate=   0.3kbits/s speed=0.0186x elapsed=0:01:06.29    \nframe=   39 fps=0.6 q=40.5 size=       0KiB time=00:00:01.23 bitrate=   0.3kbits/s speed=0.0184x elapsed=0:01:06.88    \nframe=   39 fps=0.6 q=40.5 size=       0KiB time=00:00:01.23 bitrate=   0.3kbits/s speed=0.0183x elapsed=0:01:07.47    \nframe=   40 fps=0.6 q=42.7 size=       0KiB time=00:00:01.26 bitrate=   0.3kbits/s speed=0.0186x elapsed=0:01:08.03    \nframe=   40 fps=0.6 q=42.7 size=       0KiB time=00:00:01.26 bitrate=   0.3kbits/s speed=0.0185x elapsed=0:01:08.58    \nframe=   40 fps=0.6 q=42.7 size=       0KiB time=00:00:01.26 bitrate=   0.3kbits/s speed=0.0183x elapsed=0:01:09.14    \nframe=   40 fps=0.6 q=42.7 size=       0KiB time=00:00:01.26 bitrate=   0.3kbits/s speed=0.0182x elapsed=0:01:09.71    \nframe=   40 fps=0.6 q=42.7 size=       0KiB time=00:00:01.26 bitrate=   0.3kbits/s speed=0.018x elapsed=0:01:10.27    \nframe=   40 fps=0.6 q=42.7 size=       0KiB time=00:00:01.26 bitrate=   0.3kbits/s speed=0.0179x elapsed=0:01:10.84    \nframe=   40 fps=0.6 q=42.7 size=       0KiB time=00:00:01.26 bitrate=   0.3kbits/s speed=0.0177x elapsed=0:01:11.45    \nframe=   40 fps=0.6 q=42.7 size=       0KiB time=00:00:01.26 bitrate=   0.3kbits/s speed=0.0176x elapsed=0:01:12.03    \nframe=   41 fps=0.6 q=42.9 size=       0KiB time=00:00:01.30 bitrate=   0.3kbits/s speed=0.0179x elapsed=0:01:12.60    \nframe=   41 fps=0.6 q=42.9 size=       0KiB time=00:00:01.30 bitrate=   0.3kbits/s speed=0.0178x elapsed=0:01:13.15    \nframe=   42 fps=0.6 q=35.9 size=       0KiB time=00:00:01.33 bitrate=   0.3kbits/s speed=0.0181x elapsed=0:01:13.67    \nframe=   42 fps=0.6 q=35.9 size=       0KiB time=00:00:01.33 bitrate=   0.3kbits/s speed=0.018x elapsed=0:01:14.22    \nframe=   42 fps=0.6 q=35.9 size=       0KiB time=00:00:01.33 bitrate=   0.3kbits/s speed=0.0178x elapsed=0:01:14.82    \nframe=   43 fps=0.6 q=40.1 size=       0KiB time=00:00:01.36 bitrate=   0.3kbits/s speed=0.0181x elapsed=0:01:15.37    \nframe=   43 fps=0.6 q=40.1 size=       0KiB time=00:00:01.36 bitrate=   0.3kbits/s speed=0.018x elapsed=0:01:15.96    \nframe=   44 fps=0.6 q=42.9 size=       0KiB time=00:00:01.40 bitrate=   0.3kbits/s speed=0.0183x elapsed=0:01:16.55    \nframe=   44 fps=0.6 q=42.9 size=       0KiB time=00:00:01.40 bitrate=   0.3kbits/s speed=0.0181x elapsed=0:01:17.18    \nframe=   44 fps=0.6 q=42.9 size=       0KiB time=00:00:01.40 bitrate=   0.3kbits/s speed=0.018x elapsed=0:01:17.77    \nframe=   44 fps=0.6 q=42.9 size=       0KiB time=00:00:01.40 bitrate=   0.3kbits/s speed=0.0179x elapsed=0:01:18.32    \nframe=   44 fps=0.6 q=42.9 size=       0KiB time=00:00:01.40 bitrate=   0.3kbits/s speed=0.0177x elapsed=0:01:18.89    \nframe=   44 fps=0.6 q=42.9 size=       0KiB time=00:00:01.40 bitrate=   0.3kbits/s speed=0.0176x elapsed=0:01:19.42    \nframe=   45 fps=0.6 q=41.5 size=       0KiB time=00:00:01.43 bitrate=   0.2kbits/s speed=0.0179x elapsed=0:01:19.95    \nframe=   45 fps=0.6 q=41.5 size=       0KiB time=00:00:01.43 bitrate=   0.2kbits/s speed=0.0178x elapsed=0:01:20.49    \nframe=   46 fps=0.6 q=41.9 size=       0KiB time=00:00:01.46 bitrate=   0.2kbits/s speed=0.0181x elapsed=0:01:21.01    \nframe=   47 fps=0.6 q=35.5 size=       0KiB time=00:00:01.50 bitrate=   0.2kbits/s speed=0.0184x elapsed=0:01:21.53    \nframe=   47 fps=0.6 q=35.5 size=       0KiB time=00:00:01.50 bitrate=   0.2kbits/s speed=0.0183x elapsed=0:01:22.07    \nframe=   47 fps=0.6 q=35.5 size=       0KiB time=00:00:01.50 bitrate=   0.2kbits/s speed=0.0182x elapsed=0:01:22.59    \nframe=   47 fps=0.6 q=35.5 size=       0KiB time=00:00:01.50 bitrate=   0.2kbits/s speed=0.018x elapsed=0:01:23.11    \nframe=   48 fps=0.6 q=40.5 size=       0KiB time=00:00:01.53 bitrate=   0.2kbits/s speed=0.0183x elapsed=0:01:23.62    \nframe=   48 fps=0.6 q=40.5 size=       0KiB time=00:00:01.53 bitrate=   0.2kbits/s speed=0.0182x elapsed=0:01:24.16    \nframe=   49 fps=0.6 q=42.8 size=       0KiB time=00:00:01.56 bitrate=   0.2kbits/s speed=0.0185x elapsed=0:01:24.69    \nframe=   50 fps=0.6 q=35.3 size=       0KiB time=00:00:01.60 bitrate=   0.2kbits/s speed=0.0188x elapsed=0:01:25.24    \nframe=   51 fps=0.6 q=40.2 size=       0KiB time=00:00:01.63 bitrate=   0.2kbits/s speed=0.019x elapsed=0:01:25.78    \nframe=   51 fps=0.6 q=40.2 size=       0KiB time=00:00:01.63 bitrate=   0.2kbits/s speed=0.0189x elapsed=0:01:26.30    \nframe=   51 fps=0.6 q=40.2 size=       0KiB time=00:00:01.63 bitrate=   0.2kbits/s speed=0.0188x elapsed=0:01:26.80    \nframe=   51 fps=0.6 q=40.2 size=       0KiB time=00:00:01.63 bitrate=   0.2kbits/s speed=0.0187x elapsed=0:01:27.34    \nframe=   52 fps=0.6 q=41.8 size=       0KiB time=00:00:01.66 bitrate=   0.2kbits/s speed=0.019x elapsed=0:01:27.86    \nframe=   52 fps=0.6 q=41.8 size=       0KiB time=00:00:01.66 bitrate=   0.2kbits/s speed=0.0189x elapsed=0:01:28.41    \nframe=   53 fps=0.6 q=41.8 size=       0KiB time=00:00:01.70 bitrate=   0.2kbits/s speed=0.0191x elapsed=0:01:28.94    \nframe=   53 fps=0.6 q=41.8 size=       0KiB time=00:00:01.70 bitrate=   0.2kbits/s speed=0.019x elapsed=0:01:29.49    \nframe=   53 fps=0.6 q=41.8 size=       0KiB time=00:00:01.70 bitrate=   0.2kbits/s speed=0.0189x elapsed=0:01:30.02    \nframe=   53 fps=0.6 q=41.8 size=       0KiB time=00:00:01.70 bitrate=   0.2kbits/s speed=0.0188x elapsed=0:01:30.54    \nframe=   54 fps=0.6 q=35.6 size=       0KiB time=00:00:01.73 bitrate=   0.2kbits/s speed=0.019x elapsed=0:01:31.06    \nframe=   55 fps=0.6 q=39.6 size=       0KiB time=00:00:01.76 bitrate=   0.2kbits/s speed=0.0193x elapsed=0:01:31.59    \nframe=   55 fps=0.6 q=39.6 size=       0KiB time=00:00:01.76 bitrate=   0.2kbits/s speed=0.0192x elapsed=0:01:32.12    \nframe=   56 fps=0.6 q=41.8 size=       0KiB time=00:00:01.80 bitrate=   0.2kbits/s speed=0.0194x elapsed=0:01:32.65    \nframe=   56 fps=0.6 q=41.8 size=       0KiB time=00:00:01.80 bitrate=   0.2kbits/s speed=0.0193x elapsed=0:01:33.17    \nframe=   56 fps=0.6 q=41.8 size=       0KiB time=00:00:01.80 bitrate=   0.2kbits/s speed=0.0192x elapsed=0:01:33.69    \nframe=   57 fps=0.6 q=41.6 size=       0KiB time=00:00:01.83 bitrate=   0.2kbits/s speed=0.0195x elapsed=0:01:34.24    \nframe=   57 fps=0.6 q=41.6 size=       0KiB time=00:00:01.83 bitrate=   0.2kbits/s speed=0.0194x elapsed=0:01:34.74    \nframe=   57 fps=0.6 q=41.6 size=       0KiB time=00:00:01.83 bitrate=   0.2kbits/s speed=0.0192x elapsed=0:01:35.26    \nframe=   57 fps=0.6 q=41.6 size=       0KiB time=00:00:01.83 bitrate=   0.2kbits/s speed=0.0191x elapsed=0:01:35.78    \nframe=   58 fps=0.6 q=41.7 size=       0KiB time=00:00:01.86 bitrate=   0.2kbits/s speed=0.0194x elapsed=0:01:36.30    \nframe=   58 fps=0.6 q=41.7 size=       0KiB time=00:00:01.86 bitrate=   0.2kbits/s speed=0.0193x elapsed=0:01:36.83    \nframe=   58 fps=0.6 q=41.7 size=       0KiB time=00:00:01.86 bitrate=   0.2kbits/s speed=0.0192x elapsed=0:01:37.35    \nframe=   60 fps=0.6 q=40.6 size=       0KiB time=00:00:01.93 bitrate=   0.2kbits/s speed=0.0198x elapsed=0:01:37.87    \nframe=   61 fps=0.6 q=41.8 size=       0KiB time=00:00:01.96 bitrate=   0.2kbits/s speed=0.02x elapsed=0:01:38.39    \nframe=   61 fps=0.6 q=41.8 size=       0KiB time=00:00:01.96 bitrate=   0.2kbits/s speed=0.0199x elapsed=0:01:38.92    \nframe=   61 fps=0.6 q=41.8 size=       0KiB time=00:00:01.96 bitrate=   0.2kbits/s speed=0.0198x elapsed=0:01:39.45    \nframe=   61 fps=0.6 q=41.8 size=       0KiB time=00:00:01.96 bitrate=   0.2kbits/s speed=0.0197x elapsed=0:01:39.98    \nframe=   61 fps=0.6 q=41.8 size=       0KiB time=00:00:01.96 bitrate=   0.2kbits/s speed=0.0196x elapsed=0:01:40.51    \nframe=   62 fps=0.6 q=41.9 size=       0KiB time=00:00:02.00 bitrate=   0.2kbits/s speed=0.0198x elapsed=0:01:41.02    \nframe=   63 fps=0.6 q=35.2 size=       0KiB time=00:00:02.03 bitrate=   0.2kbits/s speed=0.02x elapsed=0:01:41.55    \nframe=   64 fps=0.6 q=40.8 size=       0KiB time=00:00:02.06 bitrate=   0.2kbits/s speed=0.0202x elapsed=0:01:42.07    \nframe=   64 fps=0.6 q=40.8 size=       0KiB time=00:00:02.06 bitrate=   0.2kbits/s speed=0.0201x elapsed=0:01:42.61    \nframe=   65 fps=0.6 q=41.8 size=       0KiB time=00:00:02.10 bitrate=   0.2kbits/s speed=0.0204x elapsed=0:01:43.13    \nframe=   66 fps=0.6 q=41.9 size=       0KiB time=00:00:02.13 bitrate=   0.2kbits/s speed=0.0206x elapsed=0:01:43.65    \nframe=   66 fps=0.6 q=41.9 size=       0KiB time=00:00:02.13 bitrate=   0.2kbits/s speed=0.0205x elapsed=0:01:44.18    \nframe=   66 fps=0.6 q=41.9 size=       0KiB time=00:00:02.13 bitrate=   0.2kbits/s speed=0.0204x elapsed=0:01:44.72    \nframe=   67 fps=0.6 q=34.9 size=       0KiB time=00:00:02.16 bitrate=   0.2kbits/s speed=0.0206x elapsed=0:01:45.24    \nframe=   68 fps=0.6 q=40.5 size=     256KiB time=00:00:02.20 bitrate= 953.4kbits/s speed=0.0208x elapsed=0:01:45.80    \nframe=   68 fps=0.6 q=40.5 size=     256KiB time=00:00:02.20 bitrate= 953.4kbits/s speed=0.0207x elapsed=0:01:46.33    \nframe=   69 fps=0.6 q=42.0 size=     256KiB time=00:00:02.23 bitrate= 939.2kbits/s speed=0.0209x elapsed=0:01:46.86    \nframe=   69 fps=0.6 q=42.0 size=     256KiB time=00:00:02.23 bitrate= 939.2kbits/s speed=0.0208x elapsed=0:01:47.38    \nframe=   70 fps=0.6 q=40.7 size=     256KiB time=00:00:02.26 bitrate= 925.4kbits/s speed=0.021x elapsed=0:01:47.90    \nframe=   70 fps=0.6 q=40.7 size=     256KiB time=00:00:02.26 bitrate= 925.4kbits/s speed=0.0209x elapsed=0:01:48.42    \nframe=   70 fps=0.6 q=40.7 size=     256KiB time=00:00:02.26 bitrate= 925.4kbits/s speed=0.0208x elapsed=0:01:48.96    \nframe=   70 fps=0.6 q=40.7 size=     256KiB time=00:00:02.26 bitrate= 925.4kbits/s speed=0.0207x elapsed=0:01:49.50    \nframe=   71 fps=0.6 q=34.8 size=     256KiB time=00:00:02.30 bitrate= 912.0kbits/s speed=0.0209x elapsed=0:01:50.02    \nframe=   71 fps=0.6 q=34.8 size=     256KiB time=00:00:02.30 bitrate= 912.0kbits/s speed=0.0208x elapsed=0:01:50.57    \nframe=   71 fps=0.6 q=34.8 size=     256KiB time=00:00:02.30 bitrate= 912.0kbits/s speed=0.0207x elapsed=0:01:51.12    \nframe=   72 fps=0.6 q=40.0 size=     256KiB time=00:00:02.33 bitrate= 898.9kbits/s speed=0.0209x elapsed=0:01:51.64    \nframe=   72 fps=0.6 q=40.0 size=     256KiB time=00:00:02.33 bitrate= 898.9kbits/s speed=0.0208x elapsed=0:01:52.15    \nframe=   72 fps=0.6 q=40.0 size=     256KiB time=00:00:02.33 bitrate= 898.9kbits/s speed=0.0207x elapsed=0:01:52.69    \nframe=   73 fps=0.6 q=42.0 size=     256KiB time=00:00:02.36 bitrate= 886.3kbits/s speed=0.0209x elapsed=0:01:53.22    \nframe=   74 fps=0.7 q=41.8 size=     256KiB time=00:00:02.40 bitrate= 874.0kbits/s speed=0.0211x elapsed=0:01:53.73    \nframe=   74 fps=0.6 q=41.8 size=     256KiB time=00:00:02.40 bitrate= 874.0kbits/s speed=0.021x elapsed=0:01:54.26    \nframe=   74 fps=0.6 q=41.8 size=     256KiB time=00:00:02.40 bitrate= 874.0kbits/s speed=0.0209x elapsed=0:01:54.79    \nframe=   75 fps=0.7 q=34.7 size=     256KiB time=00:00:02.43 bitrate= 862.0kbits/s speed=0.0211x elapsed=0:01:55.31    \nframe=   75 fps=0.6 q=34.7 size=     256KiB time=00:00:02.43 bitrate= 862.0kbits/s speed=0.021x elapsed=0:01:55.83    \nframe=   76 fps=0.7 q=39.9 size=     256KiB time=00:00:02.46 bitrate= 850.3kbits/s speed=0.0212x elapsed=0:01:56.35    \nframe=   76 fps=0.7 q=39.9 size=     256KiB time=00:00:02.46 bitrate= 850.3kbits/s speed=0.0211x elapsed=0:01:56.88    \nframe=   77 fps=0.7 q=41.9 size=     256KiB time=00:00:02.50 bitrate= 839.0kbits/s speed=0.0213x elapsed=0:01:57.40    \nframe=   77 fps=0.7 q=41.9 size=     256KiB time=00:00:02.50 bitrate= 839.0kbits/s speed=0.0212x elapsed=0:01:57.92    \nframe=   78 fps=0.7 q=41.7 size=     256KiB time=00:00:02.53 bitrate= 828.0kbits/s speed=0.0214x elapsed=0:01:58.44    \nframe=   79 fps=0.7 q=35.0 size=     256KiB time=00:00:02.56 bitrate= 817.2kbits/s speed=0.0216x elapsed=0:01:58.95    \nframe=   80 fps=0.7 q=39.5 size=     256KiB time=00:00:02.60 bitrate= 806.7kbits/s speed=0.0218x elapsed=0:01:59.47    \nframe=   80 fps=0.7 q=39.5 size=     256KiB time=00:00:02.60 bitrate= 806.7kbits/s speed=0.0217x elapsed=0:01:59.99    \nframe=   81 fps=0.7 q=41.8 size=     256KiB time=00:00:02.63 bitrate= 796.5kbits/s speed=0.0218x elapsed=0:02:00.53    \nframe=   81 fps=0.7 q=41.8 size=     256KiB time=00:00:02.63 bitrate= 796.5kbits/s speed=0.0218x elapsed=0:02:01.05    \nframe=   81 fps=0.7 q=41.8 size=     256KiB time=00:00:02.63 bitrate= 796.5kbits/s speed=0.0217x elapsed=0:02:01.60    \nframe=   81 fps=0.7 q=41.8 size=     256KiB time=00:00:02.63 bitrate= 796.5kbits/s speed=0.0216x elapsed=0:02:02.12    \nframe=   82 fps=0.7 q=41.6 size=     256KiB time=00:00:02.66 bitrate= 786.6kbits/s speed=0.0217x elapsed=0:02:02.68    \nframe=   82 fps=0.7 q=41.6 size=     256KiB time=00:00:02.66 bitrate= 786.6kbits/s speed=0.0216x elapsed=0:02:03.21    \nframe=   82 fps=0.7 q=41.6 size=     256KiB time=00:00:02.66 bitrate= 786.6kbits/s speed=0.0215x elapsed=0:02:03.77    \nframe=   83 fps=0.7 q=35.0 size=     256KiB time=00:00:02.70 bitrate= 776.9kbits/s speed=0.0217x elapsed=0:02:04.28    \nframe=   84 fps=0.7 q=38.9 size=     256KiB time=00:00:02.73 bitrate= 767.4kbits/s speed=0.0219x elapsed=0:02:04.80    \nframe=   85 fps=0.7 q=42.0 size=     256KiB time=00:00:02.76 bitrate= 758.1kbits/s speed=0.0221x elapsed=0:02:05.32    \nframe=   86 fps=0.7 q=41.9 size=     256KiB time=00:00:02.80 bitrate= 749.1kbits/s speed=0.0222x elapsed=0:02:05.84    \nframe=   87 fps=0.7 q=34.6 size=     256KiB time=00:00:02.83 bitrate= 740.3kbits/s speed=0.0224x elapsed=0:02:06.36    \nframe=   88 fps=0.7 q=42.0 size=     256KiB time=00:00:02.86 bitrate= 731.7kbits/s speed=0.0226x elapsed=0:02:06.87    \nframe=   89 fps=0.7 q=34.6 size=     256KiB time=00:00:02.90 bitrate= 723.3kbits/s speed=0.0228x elapsed=0:02:07.39    \nframe=   90 fps=0.7 q=37.3 size=     256KiB time=00:00:02.93 bitrate= 715.1kbits/s speed=0.0229x elapsed=0:02:07.91    \nframe=   91 fps=0.7 q=42.5 size=     256KiB time=00:00:02.96 bitrate= 707.0kbits/s speed=0.0231x elapsed=0:02:08.42    \nframe=   92 fps=0.7 q=41.9 size=     256KiB time=00:00:03.00 bitrate= 699.2kbits/s speed=0.0233x elapsed=0:02:08.93    \nframe=   93 fps=0.7 q=42.8 size=     256KiB time=00:00:03.03 bitrate= 691.5kbits/s speed=0.0234x elapsed=0:02:09.45    \nframe=   93 fps=0.7 q=42.8 size=     256KiB time=00:00:03.03 bitrate= 691.5kbits/s speed=0.0233x elapsed=0:02:09.97    \nframe=   94 fps=0.7 q=35.0 size=     256KiB time=00:00:03.06 bitrate= 684.0kbits/s speed=0.0235x elapsed=0:02:10.47    \nframe=   96 fps=0.7 q=42.6 size=     256KiB time=00:00:03.13 bitrate= 669.4kbits/s speed=0.0239x elapsed=0:02:11.00    \nframe=   97 fps=0.7 q=42.9 size=     256KiB time=00:00:03.16 bitrate= 662.4kbits/s speed=0.0241x elapsed=0:02:11.52    \nframe=   98 fps=0.7 q=42.9 size=     256KiB time=00:00:03.20 bitrate= 655.5kbits/s speed=0.0242x elapsed=0:02:12.03    \nframe=   99 fps=0.7 q=35.5 size=     256KiB time=00:00:03.23 bitrate= 648.7kbits/s speed=0.0244x elapsed=0:02:12.55    \nframe=  100 fps=0.8 q=41.6 size=     256KiB time=00:00:03.26 bitrate= 642.1kbits/s speed=0.0245x elapsed=0:02:13.07    \nframe=  101 fps=0.8 q=43.8 size=     256KiB time=00:00:03.30 bitrate= 635.6kbits/s speed=0.0247x elapsed=0:02:13.57    \nframe=  102 fps=0.8 q=44.0 size=     256KiB time=00:00:03.33 bitrate= 629.3kbits/s speed=0.0249x elapsed=0:02:14.09    \nframe=  104 fps=0.8 q=41.6 size=     256KiB time=00:00:03.40 bitrate= 616.9kbits/s speed=0.0253x elapsed=0:02:14.61    \nframe=  105 fps=0.8 q=44.0 size=     256KiB time=00:00:03.43 bitrate= 610.9kbits/s speed=0.0254x elapsed=0:02:15.12    \nframe=  106 fps=0.8 q=44.0 size=     256KiB time=00:00:03.46 bitrate= 605.0kbits/s speed=0.0256x elapsed=0:02:15.63    \nframe=  106 fps=0.8 q=44.0 size=     256KiB time=00:00:03.46 bitrate= 605.0kbits/s speed=0.0255x elapsed=0:02:16.15    \nframe=  106 fps=0.8 q=44.0 size=     256KiB time=00:00:03.46 bitrate= 605.0kbits/s speed=0.0254x elapsed=0:02:16.67    \nframe=  106 fps=0.8 q=44.0 size=     256KiB time=00:00:03.46 bitrate= 605.0kbits/s speed=0.0253x elapsed=0:02:17.21    \nframe=  107 fps=0.8 q=35.5 size=     256KiB time=00:00:03.50 bitrate= 599.3kbits/s speed=0.0254x elapsed=0:02:17.73    \nframe=  107 fps=0.8 q=35.5 size=     256KiB time=00:00:03.50 bitrate= 599.3kbits/s speed=0.0253x elapsed=0:02:18.24    \nframe=  107 fps=0.8 q=35.5 size=     256KiB time=00:00:03.50 bitrate= 599.3kbits/s speed=0.0252x elapsed=0:02:18.79    \nframe=  108 fps=0.8 q=42.4 size=     256KiB time=00:00:03.53 bitrate= 593.6kbits/s speed=0.0254x elapsed=0:02:19.33    \nframe=  108 fps=0.8 q=42.4 size=     256KiB time=00:00:03.53 bitrate= 593.6kbits/s speed=0.0253x elapsed=0:02:19.86    \nframe=  109 fps=0.8 q=43.9 size=     256KiB time=00:00:03.56 bitrate= 588.1kbits/s speed=0.0254x elapsed=0:02:20.37    \nframe=  109 fps=0.8 q=43.9 size=     256KiB time=00:00:03.56 bitrate= 588.1kbits/s speed=0.0253x elapsed=0:02:20.90    \nframe=  110 fps=0.8 q=35.7 size=     256KiB time=00:00:03.60 bitrate= 582.6kbits/s speed=0.0255x elapsed=0:02:21.42    \nframe=  110 fps=0.8 q=35.7 size=     256KiB time=00:00:03.60 bitrate= 582.6kbits/s speed=0.0254x elapsed=0:02:21.95    \nframe=  110 fps=0.8 q=35.7 size=     256KiB time=00:00:03.60 bitrate= 582.6kbits/s speed=0.0253x elapsed=0:02:22.47    \nframe=  110 fps=0.8 q=35.7 size=     256KiB time=00:00:03.60 bitrate= 582.6kbits/s speed=0.0252x elapsed=0:02:23.00    \nframe=  111 fps=0.8 q=41.6 size=     256KiB time=00:00:03.63 bitrate= 577.3kbits/s speed=0.0253x elapsed=0:02:23.54    \nframe=  112 fps=0.8 q=44.0 size=     256KiB time=00:00:03.66 bitrate= 572.0kbits/s speed=0.0254x elapsed=0:02:24.07    \nframe=  112 fps=0.8 q=44.0 size=     256KiB time=00:00:03.66 bitrate= 572.0kbits/s speed=0.0254x elapsed=0:02:24.61    \nframe=  113 fps=0.8 q=44.0 size=     256KiB time=00:00:03.70 bitrate= 566.9kbits/s speed=0.0255x elapsed=0:02:25.13    \nframe=  113 fps=0.8 q=44.0 size=     256KiB time=00:00:03.70 bitrate= 566.9kbits/s speed=0.0254x elapsed=0:02:25.63    \nframe=  113 fps=0.8 q=44.0 size=     256KiB time=00:00:03.70 bitrate= 566.9kbits/s speed=0.0253x elapsed=0:02:26.15    \nframe=  113 fps=0.8 q=44.0 size=     256KiB time=00:00:03.70 bitrate= 566.9kbits/s speed=0.0252x elapsed=0:02:26.69    \nframe=  114 fps=0.8 q=35.9 size=     256KiB time=00:00:03.73 bitrate= 561.8kbits/s speed=0.0254x elapsed=0:02:27.23    \nframe=  114 fps=0.8 q=35.9 size=     256KiB time=00:00:03.73 bitrate= 561.8kbits/s speed=0.0253x elapsed=0:02:27.75    \nframe=  115 fps=0.8 q=42.0 size=     256KiB time=00:00:03.76 bitrate= 556.9kbits/s speed=0.0254x elapsed=0:02:28.27    \nframe=  115 fps=0.8 q=42.0 size=     256KiB time=00:00:03.76 bitrate= 556.9kbits/s speed=0.0253x elapsed=0:02:28.79    \nframe=  116 fps=0.8 q=44.0 size=     256KiB time=00:00:03.80 bitrate= 552.0kbits/s speed=0.0254x elapsed=0:02:29.32    \nframe=  116 fps=0.8 q=44.0 size=     256KiB time=00:00:03.80 bitrate= 552.0kbits/s speed=0.0254x elapsed=0:02:29.86    \nframe=  117 fps=0.8 q=43.9 size=     256KiB time=00:00:03.83 bitrate= 547.2kbits/s speed=0.0255x elapsed=0:02:30.40    \nframe=  117 fps=0.8 q=43.9 size=     256KiB time=00:00:03.83 bitrate= 547.2kbits/s speed=0.0254x elapsed=0:02:30.91    \nframe=  117 fps=0.8 q=43.9 size=     256KiB time=00:00:03.83 bitrate= 547.2kbits/s speed=0.0253x elapsed=0:02:31.44    \nframe=  117 fps=0.8 q=43.9 size=     256KiB time=00:00:03.83 bitrate= 547.2kbits/s speed=0.0252x elapsed=0:02:31.95    \nframe=  117 fps=0.8 q=43.9 size=     256KiB time=00:00:03.83 bitrate= 547.2kbits/s speed=0.0251x elapsed=0:02:32.47    \nframe=  118 fps=0.8 q=35.9 size=     256KiB time=00:00:03.83 bitrate= 547.2kbits/s speed=0.0251x elapsed=0:02:33.00    \nframe=  119 fps=0.8 q=42.2 size=     256KiB time=00:00:03.90 bitrate= 537.8kbits/s speed=0.0254x elapsed=0:02:33.53    \nframe=  120 fps=0.8 q=44.0 size=     256KiB time=00:00:03.93 bitrate= 533.3kbits/s speed=0.0255x elapsed=0:02:34.07    \nframe=  120 fps=0.8 q=44.0 size=     256KiB time=00:00:03.93 bitrate= 533.3kbits/s speed=0.0254x elapsed=0:02:34.59    \nframe=  120 fps=0.8 q=44.0 size=     256KiB time=00:00:03.93 bitrate= 533.3kbits/s speed=0.0254x elapsed=0:02:35.15    \nframe=  120 fps=0.8 q=44.0 size=     256KiB time=00:00:03.93 bitrate= 533.3kbits/s speed=0.0253x elapsed=0:02:35.71    \nframe=  121 fps=0.8 q=43.9 size=     256KiB time=00:00:03.96 bitrate= 528.8kbits/s speed=0.0254x elapsed=0:02:36.26    \nframe=  121 fps=0.8 q=43.9 size=     256KiB time=00:00:03.96 bitrate= 528.8kbits/s speed=0.0253x elapsed=0:02:36.77    \nframe=  121 fps=0.8 q=43.9 size=     256KiB time=00:00:03.96 bitrate= 528.8kbits/s speed=0.0252x elapsed=0:02:37.30    \nframe=  122 fps=0.8 q=36.0 size=     256KiB time=00:00:04.00 bitrate= 524.4kbits/s speed=0.0253x elapsed=0:02:37.82    \nframe=  123 fps=0.8 q=42.4 size=     256KiB time=00:00:04.03 bitrate= 520.0kbits/s speed=0.0255x elapsed=0:02:38.34    \nframe=  123 fps=0.8 q=42.4 size=     256KiB time=00:00:04.03 bitrate= 520.0kbits/s speed=0.0254x elapsed=0:02:38.88    \nframe=  123 fps=0.8 q=42.4 size=     256KiB time=00:00:04.03 bitrate= 520.0kbits/s speed=0.0253x elapsed=0:02:39.41    \nframe=  124 fps=0.8 q=43.8 size=     256KiB time=00:00:04.06 bitrate= 515.8kbits/s speed=0.0254x elapsed=0:02:39.93    \nframe=  124 fps=0.8 q=43.8 size=     256KiB time=00:00:04.06 bitrate= 515.8kbits/s speed=0.0253x elapsed=0:02:40.48    \nframe=  124 fps=0.8 q=43.8 size=     256KiB time=00:00:04.06 bitrate= 515.8kbits/s speed=0.0253x elapsed=0:02:41.00    \nframe=  125 fps=0.8 q=44.8 size=     256KiB time=00:00:04.10 bitrate= 511.6kbits/s speed=0.0254x elapsed=0:02:41.54    \nframe=  125 fps=0.8 q=44.8 size=     256KiB time=00:00:04.10 bitrate= 511.6kbits/s speed=0.0253x elapsed=0:02:42.09    \nframe=  126 fps=0.8 q=43.8 size=     256KiB time=00:00:04.13 bitrate= 507.5kbits/s speed=0.0254x elapsed=0:02:42.63    \nframe=  126 fps=0.8 q=43.8 size=     256KiB time=00:00:04.13 bitrate= 507.5kbits/s speed=0.0253x elapsed=0:02:43.17    \nframe=  126 fps=0.8 q=43.8 size=     256KiB time=00:00:04.13 bitrate= 507.5kbits/s speed=0.0252x elapsed=0:02:43.69    \nframe=  127 fps=0.8 q=36.4 size=     256KiB time=00:00:04.16 bitrate= 503.4kbits/s speed=0.0254x elapsed=0:02:44.23    \nframe=  127 fps=0.8 q=36.4 size=     256KiB time=00:00:04.16 bitrate= 503.4kbits/s speed=0.0253x elapsed=0:02:44.74    \nframe=  127 fps=0.8 q=36.4 size=     256KiB time=00:00:04.16 bitrate= 503.4kbits/s speed=0.0252x elapsed=0:02:45.28    \nframe=  128 fps=0.8 q=42.0 size=     512KiB time=00:00:04.20 bitrate= 998.7kbits/s speed=0.0253x elapsed=0:02:45.81    \nframe=  128 fps=0.8 q=42.0 size=     512KiB time=00:00:04.20 bitrate= 998.7kbits/s speed=0.0253x elapsed=0:02:46.32    \nframe=  128 fps=0.8 q=42.0 size=     512KiB time=00:00:04.20 bitrate= 998.7kbits/s speed=0.0252x elapsed=0:02:46.86    \nframe=  129 fps=0.8 q=43.8 size=     512KiB time=00:00:04.23 bitrate= 990.9kbits/s speed=0.0253x elapsed=0:02:47.38    \nframe=  130 fps=0.8 q=44.0 size=     512KiB time=00:00:04.26 bitrate= 983.1kbits/s speed=0.0254x elapsed=0:02:47.91    \nframe=  130 fps=0.8 q=44.0 size=     512KiB time=00:00:04.26 bitrate= 983.1kbits/s speed=0.0253x elapsed=0:02:48.41    \nframe=  130 fps=0.8 q=44.0 size=     512KiB time=00:00:04.26 bitrate= 983.1kbits/s speed=0.0253x elapsed=0:02:48.93    \nframe=  131 fps=0.8 q=36.3 size=     512KiB time=00:00:04.30 bitrate= 975.5kbits/s speed=0.0254x elapsed=0:02:49.48    \nframe=  132 fps=0.8 q=41.8 size=     512KiB time=00:00:04.33 bitrate= 968.0kbits/s speed=0.0255x elapsed=0:02:50.00    \nframe=  132 fps=0.8 q=41.8 size=     512KiB time=00:00:04.33 bitrate= 968.0kbits/s speed=0.0254x elapsed=0:02:50.53    \nframe=  133 fps=0.8 q=44.0 size=     512KiB time=00:00:04.36 bitrate= 960.6kbits/s speed=0.0255x elapsed=0:02:51.04    \nframe=  134 fps=0.8 q=43.9 size=     512KiB time=00:00:04.40 bitrate= 953.3kbits/s speed=0.0256x elapsed=0:02:51.55    \nframe=  134 fps=0.8 q=43.9 size=     512KiB time=00:00:04.40 bitrate= 953.3kbits/s speed=0.0256x elapsed=0:02:52.08    \nframe=  135 fps=0.8 q=36.4 size=     512KiB time=00:00:04.43 bitrate= 946.2kbits/s speed=0.0257x elapsed=0:02:52.60    \nframe=  136 fps=0.8 q=42.5 size=     512KiB time=00:00:04.46 bitrate= 939.1kbits/s speed=0.0258x elapsed=0:02:53.13    \nframe=  136 fps=0.8 q=42.5 size=     512KiB time=00:00:04.46 bitrate= 939.1kbits/s speed=0.0257x elapsed=0:02:53.69    \nframe=  136 fps=0.8 q=42.5 size=     512KiB time=00:00:04.46 bitrate= 939.1kbits/s speed=0.0256x elapsed=0:02:54.23    \nframe=  137 fps=0.8 q=43.9 size=     512KiB time=00:00:04.50 bitrate= 932.1kbits/s speed=0.0257x elapsed=0:02:54.78    \nframe=  137 fps=0.8 q=43.9 size=     512KiB time=00:00:04.50 bitrate= 932.1kbits/s speed=0.0257x elapsed=0:02:55.30    \nframe=  137 fps=0.8 q=43.9 size=     512KiB time=00:00:04.50 bitrate= 932.1kbits/s speed=0.0256x elapsed=0:02:55.82    \nframe=  137 fps=0.8 q=43.9 size=     512KiB time=00:00:04.50 bitrate= 932.1kbits/s speed=0.0255x elapsed=0:02:56.34    \nframe=  138 fps=0.8 q=43.6 size=     512KiB time=00:00:04.53 bitrate= 925.3kbits/s speed=0.0256x elapsed=0:02:56.85    \nframe=  139 fps=0.8 q=42.9 size=     512KiB time=00:00:04.56 bitrate= 918.5kbits/s speed=0.0257x elapsed=0:02:57.38    \nframe=  140 fps=0.8 q=36.9 size=     512KiB time=00:00:04.60 bitrate= 911.9kbits/s speed=0.0259x elapsed=0:02:57.88    \nframe=  142 fps=0.8 q=43.8 size=     512KiB time=00:00:04.66 bitrate= 898.9kbits/s speed=0.0262x elapsed=0:02:58.41    \nframe=  143 fps=0.8 q=42.9 size=     512KiB time=00:00:04.70 bitrate= 892.5kbits/s speed=0.0263x elapsed=0:02:58.92    \nframe=  144 fps=0.8 q=37.0 size=     512KiB time=00:00:04.73 bitrate= 886.2kbits/s speed=0.0264x elapsed=0:02:59.43    \nframe=  145 fps=0.8 q=41.6 size=     512KiB time=00:00:04.76 bitrate= 880.0kbits/s speed=0.0265x elapsed=0:02:59.95    \nframe=  146 fps=0.8 q=42.7 size=     512KiB time=00:00:04.80 bitrate= 873.9kbits/s speed=0.0266x elapsed=0:03:00.47    \nframe=  148 fps=0.8 q=37.6 size=     512KiB time=00:00:04.86 bitrate= 861.9kbits/s speed=0.0269x elapsed=0:03:00.98    \n[mp4 @ 0000021f5bbea980] Starting second pass: moving the moov atom to the beginning of the file\n[out#0/mp4 @ 0000021f5bbf1700] video:601KiB audio:0KiB subtitle:0KiB other streams:0KiB global headers:2KiB muxing overhead: 0.856615%\nframe=  150 fps=0.8 q=40.6 Lsize=     606KiB time=00:00:04.93 bitrate=1006.6kbits/s speed=0.0272x elapsed=0:03:01.39    \nx265 [info]: frame I:      1, Avg QP:42.06  kb/s: 3808.56 \nx265 [info]: frame P:     38, Avg QP:36.54  kb/s: 2835.54 \nx265 [info]: frame B:    111, Avg QP:42.30  kb/s: 324.36  \nx265 [info]: Weighted P-Frames: Y:39.5% UV:34.2%\n\nencoded 150 frames in 180.78s (0.83 fps), 983.75 kb/s, Avg QP:40.84\n",
  "seconds": 181.70743799209595,
  "probe_out": {}
}